<svg id="Capa_1" data-name="Capa 1" xmlns="http://www.w3.org/2000/svg" viewBox="0 0 134.82 132.46"><defs><style>.cls-1{fill:#ae8654;}</style></defs><title>icon-reloj</title><path class="cls-1" d="M142.41,74c0,32.63-22.53,59.88-53.64,66A66.11,66.11,0,0,1,19.5,109.16c-.51-.84-.93-1.29-2-1a4.44,4.44,0,0,1-2.94-.41c-1.4-.6-2.81-1.21-4.15-1.94C7.59,104.28,6.91,102,8.27,99.1Q11.62,92,14.93,84.82c1.3-2.8,3.78-3.93,6.61-2.65,5.53,2.49,11,5.14,16.46,7.76a3.33,3.33,0,0,1,1.9,3.3,13.46,13.46,0,0,1-4,8.78c-.42.45-1.43.47-1.41,1s.63,1.13,1,1.66c11,14.36,25.6,21.39,43.69,20.53C102.5,124.13,122.35,106,125.84,83A50.3,50.3,0,0,0,88.9,26.31a44.94,44.94,0,0,0-13.35-1.59c-1.08,0-1.36-.25-1.35-1.34.07-4.26.11-8.52,0-12.78,0-1.48.41-1.84,1.8-1.83a63.87,63.87,0,0,1,29,6.65c19.56,9.86,31.63,25.58,36.24,47,.29,1.36.5,2.73.67,4.11C142.18,69.37,142.38,72.24,142.41,74Z" transform="translate(-7.59 -8.77)"/><path class="cls-1" d="M77,85.19a9,9,0,0,1-8.91-11c.15-.68.23-1.15-.65-1.35a3.7,3.7,0,0,1-1.8-1.31L48.45,53a3.92,3.92,0,0,1-1-4.15,4.15,4.15,0,0,1,3.35-2.89,3.77,3.77,0,0,1,3.61,1.23c5.88,6.32,11.85,12.57,17.54,19.07,1.15,1.31,1.84,1.46,3.3,1a7.68,7.68,0,0,1,5.55.68,1,1,0,0,0,1.31-.2q6.87-6,13.85-11.83c1.42-1.19,3.81-.68,5.08.92a3.23,3.23,0,0,1-.34,4.83c-4.35,3.71-8.62,7.53-13.15,11a3.44,3.44,0,0,0-1.61,3.45A8.85,8.85,0,0,1,77,85.19Z" transform="translate(-7.59 -8.77)"/></svg>