<?xml version="1.0" encoding="utf-8"?>
<!-- Generator: Adobe Illustrator 23.0.2, SVG Export Plug-In . SVG Version: 6.00 Build 0)  -->
<svg version="1.1" id="Capa_1" xmlns="http://www.w3.org/2000/svg" xmlns:xlink="http://www.w3.org/1999/xlink" x="0px" y="0px"
	 viewBox="0 0 114.8 140.3" style="enable-background:new 0 0 114.8 140.3;" xml:space="preserve">
<style type="text/css">
	.st0{fill:#AE8650;}
</style>
<title>icon-packung</title>
<path class="st0" d="M28.1,110.4c2.5,0.3,4.9,0.8,7.3,1.2l10.5,1.8c3.9,0.7,7.8,1.4,11.7,2c3.3,0.6,6.7,1.1,10.1,1.7l12.3,2.1
	c2.5,0.4,5,0.9,7.5,1.3c0.4,0,0.7,0,1.1,0c-0.5-14.8-0.6-29.5,0.4-44.4c-1.1-0.3-2.2-0.5-3.3-0.5c-3.5-0.4-7.1-0.8-10.6-1.2
	s-6.8-0.8-10.2-1.1c-4-0.4-7.9-0.9-11.9-1.4l-10.3-1.1c-3.9-0.4-7.8-0.9-11.7-1.4c-0.4,0-0.7-0.1-1.1-0.1c-0.6,0.1-0.8-0.2-0.8-0.8
	c0.1-4.4,0.4-8.7,0.8-13.1c0.3-4.2,0.7-8.3,1.2-12.4c0.7-6.1,1.5-12.1,2.6-18.2c1-5.1,2-10.1,3.4-15.1c0.8-2.6,1.6-5.2,2.5-7.7
	c0.2-1.2,1.4-2,2.6-1.8c8.5-0.2,17,0,25.4,0C74.3,0.2,81,0.4,87.7,0.5c3.3,0.1,6.7,0.2,10,0.3c1.3,0,2.6,0.1,3.8,0.2
	c0.2,0,0.4,0,0.6,0.1c-0.6,0.5-0.9,1.1-1.1,1.8c-0.2,1-0.5,1.9-0.8,2.8c-0.8,3.3-1.8,6.5-2.5,9.8C96.3,22,95.1,28.5,94.1,35
	c-0.4,2.5-0.8,5.1-1.1,7.6s-0.6,4.9-0.9,7.4c-0.2,2.1-0.3,4.3-0.7,6.4c-0.4,2.8-0.6,5.6-0.8,8.3c-0.1,1.4-0.2,2.8-0.3,4.3
	c-0.2,2.5-0.5,5-0.5,7.5c-0.1,1.7,0,3.3-0.2,5c-0.2,2.1-0.1,4.2-0.3,6.3c-0.2,3-0.1,6-0.2,9c-0.1,5-0.1,10.1,0.1,15.2
	c0.2,4.2,0,8.4,0.2,12.6c0.1,3.4,0.2,6.9,0.2,10.3c0,0.5,0.1,1.1,0.1,1.6c0,0.2,0.1,0.3,0.3,0.4c-0.2,0.5-0.5,0.3-0.8,0.3
	c-4.9-0.9-9.9-1.9-14.8-2.8c-3.1-0.6-6.2-1.1-9.2-1.7c-3.5-0.7-7.1-1.4-10.6-2.1c-1.7-0.3-3.4-0.7-5.1-1c-0.2,0-0.5,0-0.7,0
	c-0.1-2.1-1.5-3.3-3.2-4.1c-0.5-0.2-0.7-0.4-0.7-1c0.1-1.4-0.7-2.8-1.9-3.5c-2.4-1.6-5.3-1.9-8-0.9c-1.7-2.2-4.2-2.9-6.8-3.3
	c-0.2-0.3,0-0.6-0.2-0.9v-0.2c0.2-1.5,0.2-2.9,0.1-4.4L28.1,110.4L28.1,110.4z M70,62.6c0.2,0.2,0.2,0.3,0.2,0.5
	c0.6,2.3,1.1,4.7,1.7,7c0.1,0.3,0.1,0.7,0.5,0.7c0.6,0.1,1.2,0.2,1.8,0.1c0.2,0,0.2-0.3,0.2-0.5c0.1-0.9,0.1-1.7,0.2-2.6
	c0.2-2.2,0.4-4.4,0.6-6.6c0.2-1.2,0.2-2.4,0.2-3.6l-1.5-0.2c-0.3,0-0.6,0.1-0.6,0.4c0.1,0.5,0,1-0.1,1.5c-0.1,2.1-0.3,4.2-0.5,6.4
	c-0.1-0.1-0.1-0.1-0.1-0.2c-0.6-2.6-1.2-5.3-1.7-7.9c0-0.2,0-0.5-0.3-0.5c-0.7-0.1-1.4-0.2-2.1-0.1c-0.4,4.3-0.8,8.7-1.1,13
	c0.7,0.2,1.4,0.2,2.1,0.2L70,62.6z M43.3,54.8c-0.3,4.2-0.7,8.3-1,12.4c1.3,0.2,2.5,0.4,3.8,0.5c1.6,0.2,3.1-1,3.3-2.6
	c0.5-1.4-0.1-3-1.3-3.8c0.1,0,0.2-0.1,0.3-0.1c1.3-0.8,1.4-2.1,1.2-3.4c-0.2-1.2-1-2.1-2.2-2.4C46.1,55,44.7,54.9,43.3,54.8z
	 M49.5,52.5c1.7,0.1,3.2-1.2,3.3-2.9c0-0.1,0-0.1,0-0.2c0.1-1,0.2-1.9,0.3-2.9c0.1-1.3,0.3-2.7,0.3-4c-0.1-1.7-1.6-2.9-3.2-2.9
	c-1.3,0-3.2,1.1-3.3,2.8c-0.2,2.2-0.4,4.4-0.6,6.6c-0.2,1.7,1,3.2,2.7,3.4C49.1,52.5,49.3,52.6,49.5,52.5z M64.4,56.8
	c-0.8-0.2-1.5-0.3-2.3-0.3c-0.5-0.1-0.6,0.1-0.7,0.5c-0.7,2.7-1.4,5.4-2.2,8c-0.3,1.3-0.7,2.6-1.1,4l1.2,0.2c0.8,0.1,1.2-0.2,1.3-1
	c0.1-0.6,0.3-1.2,0.5-1.8c0.5,0,1,0.1,1.5,0.2s0.6,0.2,0.6,0.7c0,0.8,0.1,1.6,0.2,2.4c0.7,0,1.4,0.3,2.2,0.1
	C65.1,65.5,64.8,61.2,64.4,56.8z M78.4,52.6c0-0.4,0-0.8,0-1.2c0-0.4,0.1-0.8,0.1-1.2c0.1-1.1,0.1-1.2,1.2-1
	c1.8,0.2,1.8,0.2,1.7-1.6c0-0.1,0-0.2,0-0.3c-0.8-0.2-1.7-0.3-2.6-0.3c0-0.9,0-1.8,0.1-2.7c0-0.6,0.2-0.9,1-0.8c1,0.2,2,0.2,2.9,0.1
	c-0.1-0.7,0.2-1.3,0.1-1.9c-1.8-0.3-3.6-0.2-5.3-0.3c-0.4,0-0.6,0.1-0.6,0.5c0,0.8-0.1,1.5-0.2,2.3c-0.2,2.2-0.4,4.4-0.6,6.6
	c-0.2,1.3-0.2,2.6-0.2,3.9l5.7,0.5c0-0.5,0-0.8,0.1-1.2c0.1-1,0.1-1-0.9-1C80.2,52.9,79.3,52.8,78.4,52.6z M71.8,43
	c0.9,0,1.6,0.1,2.4,0.1c1.4,0,1.4,0,1.6-1.3c0.1-0.6-0.1-0.7-0.7-0.7c-0.9,0-1.9,0-2.8-0.1c-0.8,0-1.5,0-2.3,0
	c-0.1,0.1-0.1,0.1-0.1,0.1c-0.4,4.1-0.8,8.2-1.1,12.3c0,0.6,0.3,0.7,0.7,0.7c1.2,0.1,2.4,0.1,3.6,0.2c0.6,0.1,1.1,0.1,1.7,0
	c0-0.4,0-0.8,0-1.2c0.1-0.6-0.1-0.8-0.7-0.8c-1,0-1.9-0.1-2.9-0.2c0-1.2,0-2.3,0.2-3.5c0.9,0,1.8,0,2.7,0.1c0.2-0.7,0.2-1.3,0.1-2
	l-2.6-0.2C71.5,45.3,71.8,44.2,71.8,43L71.8,43z M45.1,43.8c0.1-0.7,0.1-1.3,0.1-2c-0.4-2.6-3.6-3.3-5.4-1.8
	c-0.7,0.5-1.1,1.3-1.2,2.2c-0.2,2.1-0.4,4.2-0.6,6.3c-0.2,1.3,0.5,2.6,1.8,3.2c1.3,0.6,2.8,0.3,3.9-0.6c1-0.9,0.8-2.2,1-3.3
	c0-0.2-0.2-0.3-0.4-0.3c-0.6-0.1-1.2-0.1-1.8,0c0,0.3-0.1,0.6-0.1,0.8L42.4,49c-0.1,0.6-0.6,1-1.2,1c-0.6-0.1-1.1-0.6-1-1.2
	c0,0,0,0,0,0l0.6-6.4c0-0.6,0.5-1.1,1.2-1.1s1.1,0.5,1.1,1.2c0,0.1,0,0.1,0,0.2c-0.1,0.4-0.1,0.8,0,1.2
	C43.7,43.8,44.4,43.9,45.1,43.8L45.1,43.8z M52.1,55.6c-0.2,0.7-0.3,1.5-0.3,2.2c-0.3,3.3-0.6,6.6-0.9,9.9c0,0.3,0,0.6,0.4,0.7
	l5.4,0.6c0.2-0.7,0.2-1.3,0.1-2l-3.6-0.4c0-1.1,0.1-2.2,0.3-3.3c0.7,0,1.5,0,2.2,0.1c0.3,0,0.5,0,0.5-0.4s0.1-1,0.1-1.5
	c-0.7-0.1-1.3-0.2-2-0.3c-0.3,0-0.8,0-0.7-0.4c0-1,0.2-2,0.4-2.9c0.7,0,1.5,0,2.2,0.1c1.6,0.1,1.7-0.1,1.6-1.7
	c0-0.1-0.1-0.1-0.1-0.2L52.1,55.6z M62.6,40.4c-0.2,1.8-0.3,3.5-0.5,5.2c-0.2,2.1-0.3,4.2-0.5,6.4c-0.2,1.5-0.2,1.4,1.2,1.5
	c0.7,0,0.8-0.2,0.9-0.8c0-0.3,0-0.5,0-0.8c0.2-1.2,0.1-2.5,0.4-3.8c0.7-0.1,1.4,0,2.1,0.1c0.4,0.1,0.7,0,0.7-0.6
	c0-0.6,0-0.9,0.1-1.4L64.2,46c0.2-1.2,0.1-2.2,0.4-3.3c0.2,0,0.3,0,0.5,0c0.5,0,1.1,0,1.6,0.1c1.7,0.2,1.8,0.2,1.7-1.6
	c0-0.1,0-0.3-0.1-0.3C66.5,40.5,64.6,40.7,62.6,40.4z M56.9,47.7c0.7,0,1.4,0,2,0s0.9-0.2,0.8-0.8c0-0.2,0-0.4,0-0.6
	c0-0.4-0.1-0.6-0.5-0.6c-0.7,0-1.4-0.1-2.1-0.2c0-1.1,0.1-2.3,0.3-3.4c1.2,0.1,2.5,0.2,3.7,0.1c0.1-0.6,0.1-1.3,0.1-1.9l-5.8-0.2
	c-0.4,4.3-0.7,8.5-1.1,12.7c0.7,0.1,1.4,0.1,2.1,0.2C56.6,51.2,56.6,49.4,56.9,47.7z"/>
<path class="st0" d="M108,28.9c-0.4-0.6-0.9-1.2-1.5-1.7C106.7,28.2,107.6,29.2,108,28.9z"/>
<path class="st0" d="M106.8,29.2c-0.1,0.4-0.6,0.3-0.4,0.7c0.3,0.2,0.6,0.1,0.7-0.2c0.1-0.1,0.1-0.2,0.1-0.3c0.1-1-0.8-0.6-1.3-0.8
	c0-0.3,0.5-0.2,0.4-0.6c-0.2-0.2-0.4-0.2-0.6,0c-0.3,0.3-0.4,0.7-0.2,1.1L106.8,29.2z"/>
<path class="st0" d="M104.3,96.6c-0.4,0.3-0.6,0.9-0.4,1.4c-0.6-0.1-1.3-0.2-1.6,0.4c-0.4,0.6-0.3,1.5,0.3,1.9
	c-0.4,0.1-0.4,0.6-0.8,0.6c-0.2-0.3,0-0.5,0-0.7s0.1-0.5-0.1-0.8c-0.4-0.2-0.7,0.1-1,0.3s-0.3,0.6-0.3,1.2c-0.4-0.4-0.6-0.7-0.9-1
	s-0.3-0.4-0.6-0.2s0,0.4,0.1,0.6s0.3,0.3,0.3,0.6c-0.6,0.4-1,0.9-0.7,1.7c0.2,0.4,0.6,0.7,1.1,0.6c0.9-0.1,1-0.8,1.2-1.6
	c0.8,0.3,1.6-0.1,1.9-0.9c0.3,0.2,0.5,0.7,0.8,0.4s-0.3-0.6-0.1-0.9c0.7-0.6,0.7-0.6,0.8-1.4c0.6,0.1,1.2,0.1,1.5-0.5
	c0.3-0.5,0.2-1.2-0.2-1.7C105.2,96.4,104.7,96.2,104.3,96.6z"/>
<path class="st0" d="M99.5,35.8c1.1,0.1,1.3-0.8,1.5-1.6c0.7,0.2,1.5-0.2,1.7-0.9c0.4,0.1,0.5,0.6,0.9,0.3c0.1-0.3-0.2-0.5-0.3-0.8
	c0.7-0.4,0.8-0.6,1-1.5c1,0.1,1.5-0.3,1.6-1c0-0.5-0.3-0.8-0.4-1.1c-1.5,0-1.5,0-1.8,1.3c-1.8,0.1-2.2,1.1-1.3,2.3l-0.7,0.9
	c-0.3-0.6,0.2-1.1-0.1-1.7c-0.8-0.1-1.1,0.1-1.5,1.2c-0.3,0-0.3-0.3-0.4-0.4c-0.2-0.1-0.5-0.9-0.9-0.5c-0.4,0.3,0.3,0.6,0.4,0.9
	c0,0.1,0,0.1,0,0.2c-0.6,0.2-1,0.8-0.9,1.4C98.5,35.4,99,35.8,99.5,35.8z"/>
<path class="st0" d="M106.6,94.6c-0.2,0.2-0.2,0.4-0.2,0.7l0,0c-1,0-1.1,0.2-0.8,1.2c0.3,0.1,0.7-0.1,1.1,0.1
	c-0.2,0.2-0.6,0.2-0.4,0.5s0.5,0.1,0.7,0s0.3-1,1-0.8c0,0,0.1-0.2,0.1-0.2C107.6,95.6,107.4,94.8,106.6,94.6z"/>
<path class="st0" d="M108,93.5c-0.4,0.2-0.7-0.1-1-0.2c0,1.1,0.8,1.4,1.4,2s0.9,0.2,1-0.4C108.3,94.9,107.9,94.5,108,93.5z"/>
<path class="st0" d="M114.7,111.1c0-6.7-0.1-13.4-0.4-20.1c-0.3,0.2-0.6,0.4-1,0.5c-0.1,0-0.2,0-0.2,0.1c-0.2,1.1-0.7,0.3-1,0.2
	c-0.1,0-0.1-0.1-0.2-0.1c-0.3-0.1-0.6-0.5-0.9-0.2s0.1,0.6,0.3,0.9s0.6,0.5,0.3,0.9c-0.3,0.2-0.4-0.3-0.6-0.3
	c-0.1,0.6-0.2,1.3-0.9,1.5c-0.2,0.4,0.7,0.6,0.1,1c-0.4-0.1-0.4-0.6-0.8-0.6c0-0.3-0.2-0.5-0.4-0.7c-0.4-0.4-0.5-1-0.2-1.5
	c0.3-0.5,0.8-0.8,1.4-0.6c0.1,0,0.2,0,0.3,0c0-0.4-0.3-0.5-0.5-0.7s-0.4-0.5-0.3-0.9c0.4,0,0.5,0.4,0.9,0.5c0.5-0.3,1.1-0.4,1.6-0.3
	c0.5-1.6,0.8-1.7,2.1-1.3c0.4-0.7-0.9-0.8-0.5-1.5c0.1-0.1,0.5,0.2,0.6-0.2c0-1.1,0-2.2-0.1-3.4c-0.2-5.8-0.5-11.5-0.9-17.2
	c-0.3-4.2-0.6-8.3-1-12.4c-0.2-1.8-0.5-3.6-0.7-5.3c-0.1-1.3-0.2-2.6-0.4-3.9c-0.8-5.9-1.9-11.7-3.1-17.5c-0.1,0-0.1-0.1-0.1-0.2
	l-0.1-0.3c-0.5-0.2-0.9-0.5-0.9-1.1c0.3-0.3,0.3,0.2,0.5,0.2c0-0.1,0.1-0.2,0.1-0.3c-0.5-2.8-1.2-5.5-1.9-8.2h0.5
	c1,0,1.8-0.7,1.8-1.7c0-0.2,0-0.4-0.1-0.6c-0.1-0.9-0.3-1.8-0.6-2.7c-1.1-3.8-2.6-7.4-3.9-11.1c-0.2-0.6-0.8-1-1.4-0.9
	c-0.6,0.5-0.9,1.1-1.1,1.8c-0.2,1-0.5,1.9-0.8,2.9c-0.8,3.3-1.8,6.5-2.5,9.8c-1.5,6.4-2.6,12.9-3.6,19.4c-0.4,2.5-0.8,5.1-1.1,7.6
	s-0.6,4.9-0.9,7.4c-0.2,2.1-0.3,4.3-0.7,6.4c-0.4,2.8-0.6,5.6-0.8,8.3c-0.1,1.4-0.2,2.8-0.3,4.3c-0.2,2.5-0.5,5-0.5,7.5
	c-0.1,1.7,0,3.3-0.2,5c-0.2,2.1-0.1,4.2-0.3,6.3c-0.2,3-0.1,6-0.2,9c-0.1,5-0.1,10.1,0.1,15.2c0.2,4.2,0,8.4,0.2,12.6
	c0.1,3.4,0.2,6.9,0.2,10.3c0,0.5,0.1,1.1,0.1,1.6c0,0.2,0.1,0.3,0.3,0.4l0.6-0.2c0.6-0.8,1.6-1.2,2.5-1.2c3.3-1.5,6.5-3.1,9.8-4.7
	s6.8-3.4,10.2-4.9c1.5-0.6,1.5-0.6,1.5-2.3C114.7,119.6,114.7,115.3,114.7,111.1z M108,28.9c-0.5,0.2-1.3-0.7-1.5-1.7
	C107.1,27.7,107.6,28.3,108,28.9z M105.7,28.1c0.2-0.2,0.4-0.2,0.6,0c0.1,0.3-0.3,0.3-0.4,0.6c0.5,0.2,1.4-0.1,1.3,0.8
	c0,0.3-0.2,0.5-0.5,0.5c-0.1,0-0.2,0-0.3-0.1c-0.2-0.4,0.3-0.3,0.4-0.7h-1.3C105.3,28.8,105.4,28.4,105.7,28.1z M99.4,33.4
	c0-0.1,0-0.1,0-0.2c-0.1-0.3-0.8-0.5-0.4-0.9s0.6,0.3,0.9,0.5s0.2,0.4,0.4,0.4c0.4-1.1,0.7-1.4,1.5-1.2c0.3,0.5-0.2,1,0.1,1.7
	l0.7-0.9c-1-1.2-0.5-2.2,1.3-2.3c0.3-1.4,0.4-1.4,1.8-1.3c0.2,0.4,0.5,0.7,0.4,1.1c-0.1,0.8-0.6,1.1-1.6,1c-0.2,0.9-0.3,1.1-1,1.5
	c0.1,0.2,0.4,0.4,0.3,0.8c-0.4,0.3-0.6-0.2-0.9-0.3c-0.2,0.7-1,1.1-1.7,0.9c-0.2,0.8-0.4,1.7-1.5,1.6c-0.5,0-0.9-0.4-1-0.9
	C98.4,34.3,98.8,33.7,99.4,33.4z M105.9,98.2c-0.3,0.6-0.9,0.6-1.5,0.5c-0.1,0.8-0.1,0.8-0.8,1.4c-0.2,0.3,0.5,0.6,0.1,0.9
	s-0.5-0.2-0.8-0.4c-0.3,0.8-1.1,1.1-1.9,0.9c-0.2,0.8-0.2,1.5-1.2,1.6c-0.5,0.1-0.9-0.2-1.1-0.6c-0.4-0.8,0.1-1.3,0.7-1.7
	c0-0.3-0.2-0.4-0.3-0.6s-0.4-0.4-0.1-0.6s0.4,0.1,0.6,0.2s0.5,0.6,0.9,1c0-0.5,0-0.9,0.3-1.2s0.5-0.5,1-0.3c0.2,0.2,0,0.5,0.1,0.8
	s-0.2,0.4,0,0.7c0.4,0,0.4-0.5,0.8-0.6c-0.6-0.4-0.8-1.3-0.3-1.9c0.3-0.6,1-0.5,1.6-0.4c-0.2-0.5,0-1.1,0.4-1.4
	c0.5-0.4,0.9-0.1,1.4-0.1C106.1,97,106.2,97.6,105.9,98.2z M108.1,96.4c-0.7-0.2-0.6,0.6-1,0.8s-0.5,0.3-0.7,0s0.2-0.3,0.4-0.5
	c-0.4-0.2-0.8,0-1.1-0.1c-0.3-1.1-0.2-1.3,0.8-1.2c-0.1-0.2,0-0.5,0.2-0.7c0.8,0.2,1,1,1.5,1.5C108.2,96.2,108.1,96.3,108.1,96.4
	L108.1,96.4z M108.3,95.4c-0.5-0.5-1.4-0.9-1.4-2c0.4,0.1,0.7,0.3,1,0.2c-0.1,1,0.3,1.3,1.3,1.4C109.2,95.6,108.7,95.8,108.3,95.4
	L108.3,95.4z"/>
<polygon class="st0" points="106.5,95.2 106.5,95.2 106.5,95.2 "/>
<path class="st0" d="M64.7,90.2c2-0.2,3.9,0.1,5.7,0.9c1.8,0.7,3.2,2.1,3.9,3.9c0.9,2.5-0.2,5.3-2.5,6.6c-5.5,3.5-11.4,4.6-17.7,2.2
	c-0.3-0.1-0.6-0.1-0.8,0.1c-2.5,1.2-5.4,1.3-8,0.3c-1.1-0.5-2-1.3-2.7-2.3c-1.7-2.3-2.2-5.3-1.2-8c1.1-3.2,3-6.2,5.4-8.6
	c1.8-2.1,4.1-3.8,6.8-4.7c3.4-1.1,6.6-0.8,9.2,1.9c1.8,1.9,2.4,4.6,1.8,7.1C64.8,89.8,64.8,89.9,64.7,90.2z M45.2,102.5
	c0.1-0.1,0.1-0.2,0.2-0.3c0.9-2.5,2.4-4.7,4.4-6.4c1.9-1.9,4.1-3.6,6.2-5.3c1.9-1.4,3.4-3.2,4.5-5.3c0.5-1,0.6-2.1,0.4-3.2
	c-0.3,0.2-0.6,0.4-0.8,0.7c-0.6,0.8-1.2,1.6-1.9,2.4c-1.9,2.3-4.1,4.3-6.4,6.1c-2,1.2-3.7,2.7-5.3,4.5c-1.6,2-1.7,4.3-1.4,6.7
	C45,102.4,45.1,102.4,45.2,102.5z M61.5,97.5c0,0,0.1,0.1,0.1,0.1c2.9,0.3,5.9,0.3,8.9-0.2c1.3-0.1,2.4-0.9,3.1-2
	c-0.2,0-0.5,0-0.7,0c-3.2,0.6-6.5,0.8-9.8,0.8C62,96.2,61.8,96.4,61.5,97.5L61.5,97.5z"/>
<path class="st0" d="M28.1,111.5c0.1,1.5,0,2.9-0.1,4.4c-0.6,0-1.1-0.4-1.7-0.2c0.2,1.2,0.4,1.3,1.7,1.4l0.1-1
	c0.2,0.2,0,0.6,0.2,0.9c2.6,0.4,5,1.1,6.8,3.3c2.7-1,5.6-0.7,8,0.9c1.3,0.7,2,2.1,1.9,3.5c0,0.6,0.2,0.8,0.7,1
	c1.8,0.8,3.2,1.9,3.2,4.1s-1.6,3.6-3.9,4c-2.5,0.5-4.7-0.6-6.6-2c-0.7-0.6-1.1-1.4-1.2-2.3c-0.8,0.7-1.6,1.2-2.5,1.8
	c-2.2,1.3-4.8,1.3-7,0.1c-0.4-0.2-0.7-0.5-0.9-0.8c-0.4-0.7-0.9-0.7-1.5-0.5c-1.8,0.4-3.6,0.1-5.2-0.8c-0.8-0.4-1.5-1-2-1.8
	c-0.3-0.4-0.4-0.4-0.8-0.3c-1.8,0.7-3.7,0.8-5.6,0.3c-2.2-0.5-3.5-3.3-2.7-5.7c0.6-1.3,1.6-2.4,2.9-3c0.3-0.1,0.5-0.5,0.5-0.8
	c-0.3-2,1.1-3.8,3.1-4c0.2,0,0.4,0,0.5,0c0.3,0,0.5-0.1,0.5-0.3c0.2-1.3,1-2.5,2.3-3c1.1-0.4,2.3-0.5,3.5-0.2l1.2,0.3
	c0.8-2.2,2.7-3.1,4.8-3.9v3.6H28c-1.1-0.1-2.1,0.2-2.9,0.9C25.6,112.2,26.6,112.2,28.1,111.5z M9.4,124.3c2.2-1.5,4.7-1.6,7.1-1.7
	c1.4-0.1,2.7-0.6,3.9-1.4c0.3-0.1,0.4-0.4,0.4-0.8c-0.1,0-0.2-0.1-0.3,0c-2.3,0.8-4.7,1.1-7.1,1.1C11.6,121.5,9.9,122.6,9.4,124.3z
	 M37.8,124.3c-1,0.4-1.8,0.7-2.6,0.9c-1.8,0.5-3.6,0.8-5.5,0.9c-1.5,0.2-2.7,1.3-3,2.7c0.2,0.1,0.4-0.1,0.5-0.2
	c0.9-0.7,2-1.1,3.1-1.3c1.8-0.2,3.5-0.5,5.3-1C36.7,126.1,37.5,125.3,37.8,124.3L37.8,124.3z M48,130.2c-0.4-0.9-1.1-1.6-2.1-1.8
	c-1-0.2-2-0.2-3,0c-1.8,0-3.6-0.1-5.3-0.4c0.2,0.6,0.7,1,1.2,1.1c0.7,0.2,1.5,0.3,2.3,0.3C43.5,129.4,45.8,129.2,48,130.2L48,130.2z
	 M18.1,125.4c0.1,0,0.2,0.1,0.2,0.1c1.6-0.5,3.3-0.6,5-0.2c0.8,0.2,1.6,0.3,2.4,0.4c0.3,0,0.8,0.2,0.8-0.4s-0.3-0.7-0.7-0.8
	c-1.2-0.1-2.3-0.5-3.4-0.7C20.8,123.3,19,124,18.1,125.4L18.1,125.4z M24.7,119.7c2.2,0.2,3.9,1.5,5.7,2.6c0.6,0.4,1,0.1,1.5-0.3
	c-0.7-0.4-1.4-0.9-2.1-1.4C28.2,119.2,26.6,118.7,24.7,119.7L24.7,119.7z M44,125c-0.2-0.7-0.7-1.2-1.3-1.5
	c-1.6-0.9-3.3-0.3-4.9-0.2c0.2,0.8,0.6,1,1.2,1C40.7,124.1,42.4,124.4,44,125L44,125z M25.4,115.5l-1,0.9c-1,0.8-2,1.6-3.2,2.2
	c-0.3,0.2-0.8,0.2-0.5,0.7s0.6,0.4,1.1,0.2c0.9-0.4,1.7-0.9,2.4-1.5C25,117.4,25.5,116.5,25.4,115.5z M17.1,112.8
	c0.7,0.1,1.4,0.3,2.1,0.5c0.7,0.2,1.3,0.7,1.9,1c0.4,0.2,0.9,0.1,1.3-0.3C21.2,112.3,18.9,111.8,17.1,112.8L17.1,112.8z M17.7,117
	c-1.7-1.5-3.3-1.7-4.7-0.6c1.1,0.2,2.2,0.5,3.3,1C16.8,117.7,17.4,117.5,17.7,117C17.7,117,17.7,117,17.7,117L17.7,117z M48.4,130.4
	L48.4,130.4l0.1,0.1c0,0,0-0.1,0,0L48.4,130.4z"/>
<path class="st0" d="M13.2,140.3c-1.3,0-2.5-0.3-3.5-1c-1.1-0.6-1.6-2.7-1.1-4.2c0.2-0.6,0.5-1.2,1-1.7c1.9-1.9,4.7-2.7,7.3-2.2
	c2.1,0.3,3.5,2.2,3.2,4.2c-0.1,0.7-0.4,1.4-0.9,1.9C17.8,139.2,15.6,140.3,13.2,140.3z M19.3,134c-0.3-0.3-0.6-0.1-0.9,0
	s-0.8,0.3-1.2,0.4c-1.6,0.3-3.3,0.5-5,0.5c-1.4,0-2.6,1-3,2.3c0.8-0.3,1.5-0.6,2.3-0.9c1.5-0.3,3.1-0.5,4.7-0.6
	C17.4,135.5,18.6,135.2,19.3,134L19.3,134z"/>
<path class="st0" d="M5.3,114c1.3-0.1,2.6,0.5,3.3,1.6c0.7,1.2,0.5,2.7-0.6,3.6c-1.5,1.4-3.6,1.9-5.6,1.2c-1.2-0.3-2.2-1.3-2.3-2.5
	c-0.1-1.4,0.6-2.7,1.9-3.2C3,114.2,4.1,114,5.3,114z M8.6,116.4c-1.6,0.3-3.3,0.4-5,0.1c-1.2-0.1-2.4-0.1-3,1.2
	c0.6,0,1.1-0.3,1.7-0.3c1.5,0,2.9,0,4.3,0C7.4,117.5,8.2,117.1,8.6,116.4z"/>
<path class="st0" d="M114.3,91c-0.3,0.2-0.6,0.4-1,0.5c-0.1,0-0.2,0-0.2,0.1c-0.2,1.1-0.7,0.3-1,0.2c-0.1,0-0.1-0.1-0.2-0.1
	c-0.3-0.1-0.6-0.5-0.9-0.2s0.1,0.6,0.3,0.9s0.6,0.5,0.3,0.9c-0.3,0.2-0.4-0.3-0.6-0.3c-0.1,0.6-0.2,1.3-0.9,1.5
	c-0.2,0.4,0.7,0.6,0.1,1c-0.4-0.1-0.4-0.6-0.9-0.6l0,0c0-0.3-0.2-0.5-0.4-0.7c-0.4-0.4-0.5-1-0.2-1.5c0.3-0.5,0.8-0.8,1.4-0.6
	c0.1,0,0.2,0,0.3,0c0-0.4-0.3-0.5-0.5-0.7s-0.4-0.5-0.3-0.9c0.4,0,0.5,0.4,0.9,0.5c0.5-0.3,1.1-0.4,1.6-0.3c0.5-1.6,0.8-1.7,2.1-1.3
	c0.4-0.7-0.9-0.8-0.5-1.5c0.1-0.1,0.5,0.2,0.6-0.2C114.3,88.8,114.3,89.9,114.3,91z M110.4,93.3c-0.1-0.3-0.1-0.7-0.6-0.7
	c-0.4,0-0.6,0.3-0.7,0.6c0,0,0,0.1,0,0.1c0,0.3,0.2,0.6,0.5,0.6c0,0,0.1,0,0.1,0C110.1,94,110.3,93.7,110.4,93.3z M113.9,90.3
	c0-0.4-0.1-0.6-0.6-0.6s-0.6,0.2-0.6,0.6c0,0.3,0.2,0.6,0.6,0.7c0,0,0,0,0,0C113.8,91,113.9,90.7,113.9,90.3L113.9,90.3z
	 M112.4,91.2c0,0.3,0.1,0.4,0.4,0.3C112.8,91.2,112.7,91.1,112.4,91.2z"/>
<path class="st0" d="M90.6,136.8c0.6-0.8,1.6-1.2,2.5-1.2C92.4,136.2,91.5,136.6,90.6,136.8z"/>
<path class="st0" d="M107.9,27.5c-0.5-0.2-0.9-0.5-0.9-1.1c0.3-0.3,0.3,0.2,0.5,0.2l0.1-0.3C107.8,26.6,107.9,27,107.9,27.5z"/>
<path class="st0" d="M108,27.9c-0.1,0-0.1-0.1-0.1-0.2L108,27.9z"/>
<path class="st0" d="M70,62.6l-0.6,7.7c-0.7,0.1-1.4,0-2.1-0.1c0.4-4.4,0.8-8.7,1.1-13c0.7-0.1,1.4,0,2.1,0.1c0.3,0,0.3,0.3,0.3,0.5
	c0.6,2.6,1.2,5.3,1.7,7.9c0,0,0.1,0.1,0.1,0.2c0.2-2.2,0.3-4.3,0.5-6.4c0.1-0.5,0.2-1,0.1-1.5c-0.1-0.3,0.3-0.4,0.6-0.4l1.5,0.2
	c0.1,1.2,0,2.4-0.2,3.6c-0.1,2.2-0.4,4.4-0.6,6.6c-0.1,0.8-0.1,1.7-0.2,2.6c0,0.2,0,0.4-0.2,0.5c-0.6,0-1.2,0-1.8-0.2
	c-0.4,0-0.4-0.4-0.5-0.7c-0.6-2.3-1.1-4.7-1.7-7C70.2,62.9,70.2,62.8,70,62.6z"/>
<path class="st0" d="M43.3,54.8c1.4,0.1,2.8,0.2,4.2,0.5c1.2,0.3,2,1.2,2.2,2.4c0.2,1.3,0.1,2.6-1.2,3.4c-0.1,0.1-0.2,0.1-0.3,0.1
	c1.2,0.9,1.7,2.4,1.2,3.9c-0.2,1.6-1.7,2.8-3.4,2.6c-1.2-0.1-2.4-0.3-3.8-0.5C42.6,63.1,43,59,43.3,54.8z M45,62
	c-0.1,1.1-0.2,2.1-0.3,3.1c-0.1,0.2,0.1,0.4,0.3,0.5c0.8,0.3,1.8-0.1,2.1-0.9c0-0.1,0.1-0.2,0.1-0.3C47.5,62.8,46.9,62,45,62z
	 M45.2,60.1c0.7,0,1.4,0.3,1.9-0.3c0.5-0.6,0.6-1.3,0.2-2c-0.4-0.8-1.2-0.7-1.9-0.8L45.2,60.1z"/>
<path class="st0" d="M49.5,52.5c-1.7,0.1-3.2-1.2-3.3-2.9c0-0.2,0-0.4,0-0.6c0.2-2.2,0.4-4.4,0.6-6.6c0.1-1.7,2.1-2.8,3.3-2.8
	c1.7-0.1,3.1,1.2,3.2,2.9c0,1.3-0.2,2.7-0.3,4c-0.1,1-0.2,1.9-0.3,2.9c0,1.7-1.4,3.1-3.1,3.1C49.7,52.5,49.6,52.5,49.5,52.5z
	 M48.3,49.4c-0.1,0.6,0.4,1.1,1,1.2c0.6,0,1.2-0.2,1.2-0.8c0.3-2.3,0.5-4.7,0.6-7c0-0.6-0.4-1-0.9-1.1c-0.1,0-0.1,0-0.2,0
	c-0.5-0.1-1.1,0.3-1.2,0.8c0,0.1,0,0.1,0,0.2C48.7,44.8,48.5,47,48.3,49.4z"/>
<path class="st0" d="M64.4,56.8c0.4,4.4,0.8,8.7,1.2,13c-0.8,0.3-1.4-0.1-2.2-0.1c-0.1-0.8-0.2-1.6-0.2-2.4c0-0.4-0.1-0.7-0.6-0.7
	s-1-0.1-1.5-0.2c-0.2,0.6-0.4,1.2-0.5,1.8c-0.1,0.8-0.5,1.1-1.3,1l-1.2-0.2c0.4-1.4,0.7-2.7,1.1-4c0.7-2.7,1.5-5.4,2.2-8
	c0.1-0.4,0.2-0.6,0.7-0.5C62.8,56.6,63.6,56.6,64.4,56.8z M63,64.7L62.7,60h-0.1c-0.3,1.5-0.7,2.9-1,4.4L63,64.7z"/>
<path class="st0" d="M78.4,52.6c0.9,0.2,1.8,0.2,2.7,0.2c1,0,1,0.1,0.9,1c0,0.3,0,0.7-0.1,1.2l-5.7-0.5c-0.1-1.3,0-2.6,0.2-3.9
	c0.2-2.2,0.4-4.4,0.6-6.6c0.1-0.8,0.1-1.5,0.2-2.3c0-0.4,0.2-0.6,0.6-0.5c1.8,0.2,3.5,0.1,5.3,0.3c0.2,0.7-0.2,1.3-0.1,1.9
	c-1,0.1-2,0.1-2.9-0.1c-0.7,0-1,0.2-1,0.8c-0.1,0.9-0.2,1.8-0.1,2.7c0.9,0,1.7,0.2,2.6,0.4c0,0.1,0,0.2,0,0.3c0.1,1.8,0,1.8-1.7,1.6
	c-1.1-0.2-1.2-0.1-1.2,1c0,0.4-0.1,0.8-0.1,1.2C78.2,51.8,78.4,52.2,78.4,52.6z"/>
<path class="st0" d="M71.8,43c0,1.2-0.3,2.3-0.2,3.5l2.6,0.2c0.1,0.7,0.1,1.3-0.1,2c-0.9-0.1-1.8-0.1-2.7-0.1
	c-0.2,1.1-0.2,2.3-0.2,3.4c1,0.1,1.9,0.2,2.9,0.2c0.6,0,0.8,0.2,0.7,0.8c0,0.4,0,0.8,0,1.2c-0.6,0.1-1.1,0.1-1.7,0
	c-1.2-0.1-2.4-0.2-3.6-0.2c-0.4,0-0.8-0.1-0.7-0.7c0.4-4.1,0.8-8.2,1.1-12.4c0.6-6.2,0,0,0.1-0.1c0.8,0,1.5,0,2.3,0
	c0.9,0.1,1.9,0.1,2.8,0.1c0.5,0,0.7,0.1,0.7,0.7c-0.3,1.4-0.2,1.4-1.6,1.4C73.4,43.1,72.6,43.1,71.8,43z"/>
<path class="st0" d="M45.1,43.8c-0.7,0-1.3,0-2-0.1c-0.1-0.4-0.1-0.8,0-1.2c0.1-0.6-0.3-1.2-0.9-1.3c-0.6-0.1-1.2,0.3-1.3,0.9
	c0,0.1,0,0.1,0,0.2l-0.6,6.4c-0.1,0.6,0.4,1.1,1,1.2c0,0,0,0,0,0c0.6,0,1.1-0.4,1.2-0.9l0.1-0.8c0-0.2,0.1-0.5,0.1-0.8
	c0.6-0.1,1.2-0.1,1.8,0c0.2,0,0.4,0.1,0.4,0.3c-0.2,1.2,0,2.4-1,3.3c-1.1,0.9-2.6,1.1-3.9,0.6c-1.3-0.5-2-1.8-1.8-3.2
	c0.2-2.1,0.4-4.2,0.6-6.3c0-0.8,0.5-1.6,1.1-2.1c1.8-1.4,5-0.8,5.4,1.8C45.3,42.6,45.2,43.2,45.1,43.8z"/>
<path class="st0" d="M52.1,55.6l5.6,0.5c0,0.1,0.1,0.2,0.1,0.2c0.1,1.6,0,1.7-1.6,1.7c-0.7-0.1-1.5-0.2-2.2-0.1
	c-0.2,1-0.3,1.9-0.4,2.9c-0.1,0.5,0.4,0.4,0.7,0.4c0.7,0,1.3,0.1,2,0.3c0,0.5-0.1,1-0.1,1.5s-0.3,0.4-0.5,0.4
	c-0.7-0.1-1.4-0.2-2.2-0.2c-0.2,1.1-0.3,2.2-0.3,3.3l3.6,0.4c0.1,0.7,0.1,1.3-0.1,2l-5.4-0.6c-0.4,0-0.4-0.3-0.4-0.7
	c0.3-3.3,0.6-6.6,0.9-9.9C51.8,57,51.9,56.3,52.1,55.6z"/>
<path class="st0" d="M62.6,40.4c2,0.2,3.8,0.1,5.7,0.4c0.1,0.1,0.1,0.2,0.1,0.3c0,1.7,0,1.8-1.7,1.6c-0.5-0.1-1.1-0.1-1.6-0.1
	c-0.2,0-0.3,0-0.5,0c-0.3,1.1-0.2,2.2-0.4,3.3l2.8,0.3c0,0.5-0.1,1-0.1,1.4s-0.2,0.6-0.7,0.6c-0.7-0.1-1.4-0.2-2.1-0.1
	c-0.3,1.2-0.2,2.5-0.4,3.8c0,0.3,0,0.5,0,0.8c0,0.5-0.2,0.8-0.9,0.8c-1.5-0.1-1.4,0-1.2-1.5c0.2-2.1,0.4-4.2,0.5-6.4
	C62.3,43.9,62.5,42.2,62.6,40.4z"/>
<path class="st0" d="M56.9,47.7c-0.3,1.7-0.3,3.5-0.6,5.2c-0.7,0-1.4-0.1-2.1-0.2c0.3-4.2,0.7-8.4,1.1-12.7l5.8,0.3
	c0,0.6,0,1.3-0.1,1.9c-1.2,0.1-2.5,0-3.7-0.1c-0.2,1.1-0.3,2.2-0.3,3.4c0.8,0.1,1.4,0.1,2.1,0.2c0.4,0,0.6,0.2,0.5,0.6
	c0,0.2,0,0.4,0,0.6c0.1,0.6-0.2,0.8-0.8,0.8S57.6,47.7,56.9,47.7z"/>
<path class="st0" d="M28.1,111.5c-1.4,0.7-2.5,0.6-3-0.2c0.8-0.6,1.9-0.9,2.9-0.9L28.1,111.5z"/>
<path class="st0" d="M27.9,116l-0.1,1c-1.2-0.1-1.4-0.2-1.7-1.4c0.6-0.1,1.1,0.2,1.7,0.2L27.9,116z"/>
<path class="st0" d="M105.7,96.5c0.4,0.5,0.5,1.1,0.2,1.7c-0.3,0.6-0.9,0.6-1.5,0.5c-0.1,0.8-0.1,0.8-0.8,1.4
	c-0.2,0.3,0.5,0.6,0.1,0.9s-0.5-0.2-0.8-0.4c-0.3,0.8-1.1,1.1-1.9,0.9c-0.2,0.8-0.2,1.5-1.2,1.6c-0.5,0.1-0.9-0.2-1.1-0.6
	c-0.4-0.8,0.1-1.3,0.7-1.7c0-0.3-0.2-0.4-0.3-0.6s-0.4-0.4-0.1-0.6s0.4,0.1,0.6,0.2s0.5,0.6,0.9,1c0-0.5,0-0.9,0.3-1.2
	s0.5-0.5,1-0.3c0.2,0.2,0,0.5,0.1,0.8s-0.2,0.4,0,0.7c0.4,0,0.4-0.5,0.8-0.6c-0.6-0.5-0.7-1.3-0.3-1.9c0.3-0.6,1-0.5,1.6-0.4
	c-0.2-0.5,0-1.1,0.4-1.4C104.8,96.1,105.2,96.4,105.7,96.5L105.7,96.5z M99.8,102.6c0.3-0.1,0.5-0.4,0.5-0.7c0-0.4-0.2-0.7-0.6-0.7
	c-0.4,0-0.7,0.2-0.7,0.6c0,0,0,0,0,0.1C99,102.3,99.3,102.5,99.8,102.6z M103.8,98.9c0-0.4-0.2-0.6-0.6-0.5c-0.3,0-0.6,0.2-0.6,0.5
	c0,0,0,0.1,0,0.1c0,0.3,0.2,0.6,0.6,0.6S103.8,99.4,103.8,98.9z M105.5,97.5c0-0.3-0.2-0.6-0.5-0.6c0,0,0,0-0.1,0
	c-0.4,0-0.6,0.3-0.6,0.7c0,0.3,0.2,0.6,0.5,0.6c0,0,0,0,0.1,0c0.3,0,0.6-0.2,0.6-0.5C105.5,97.5,105.5,97.5,105.5,97.5z M101.4,99.8
	c-0.6,0.3-0.6,0.6-0.2,1.1C101.5,100.6,101.5,100.1,101.4,99.8z"/>
<path class="st0" d="M106.5,95.2c0-0.2-0.1-0.4,0.2-0.7c0.8,0.2,1,1,1.5,1.5l-0.1,0.2c-0.7-0.2-0.6,0.6-1,0.8s-0.5,0.3-0.7,0
	s0.2-0.3,0.4-0.5c-0.4-0.2-0.8,0-1.1-0.1l0,0C105.4,95.4,105.5,95.2,106.5,95.2c0.1,0.3-0.3,0.4-0.4,0.7c0.3,0.1,0.6-0.2,1,0
	C106.9,95.6,106.8,95.3,106.5,95.2z"/>
<path class="st0" d="M109.3,94.9c-0.1,0.7-0.5,0.9-1,0.4s-1.4-0.9-1.4-2c0.4,0.1,0.7,0.3,1,0.2C107.8,94.5,108.2,94.9,109.3,94.9
	L109.3,94.9z"/>
<path class="st0" d="M105.5,29.2c-0.2-0.4-0.2-0.8,0.2-1.1c0.2-0.2,0.4-0.2,0.6,0c0.1,0.3-0.3,0.3-0.4,0.6c0.5,0.2,1.4-0.1,1.3,0.8
	c0,0.3-0.2,0.5-0.5,0.5c-0.1,0-0.2,0-0.3-0.1c-0.2-0.4,0.3-0.3,0.4-0.7H105.5z"/>
<path class="st0" d="M106.5,27.3c0.6,0.5,1.1,1,1.5,1.7C107.6,29.2,106.7,28.2,106.5,27.3z"/>
<path class="st0" d="M45.2,102.5c-0.1-0.1-0.2-0.1-0.2-0.1c-0.3-2.4-0.2-4.7,1.4-6.7c1.5-1.7,3.3-3.2,5.3-4.5
	c2.3-1.8,4.5-3.8,6.4-6.1c0.7-0.8,1.3-1.6,1.9-2.4c0.2-0.3,0.5-0.5,0.8-0.7c0.2,1.1,0.1,2.2-0.4,3.1c-1.1,2.1-2.6,3.8-4.5,5.2
	c-2.1,1.8-4.2,3.4-6.2,5.3c-2,1.8-3.5,4-4.4,6.4C45.4,102.3,45.3,102.4,45.2,102.5z"/>
<path class="st0" d="M61.5,97.5c0.3-1.1,0.6-1.4,1.6-1.3c3.3,0.1,6.5-0.2,9.8-0.8c0.2,0,0.5,0,0.7,0c-0.7,1.1-1.8,1.9-3.1,2
	c-2.9,0.5-5.9,0.5-8.9,0.2C61.6,97.6,61.5,97.5,61.5,97.5z"/>
<path class="st0" d="M9.4,124.3c0.6-1.8,2.2-2.9,4.1-2.8c2.4,0,4.8-0.4,7.1-1.1c0.1,0,0.1,0,0.3,0c0,0.3-0.1,0.6-0.4,0.8
	c-1.1,0.8-2.5,1.3-3.9,1.4C14,122.8,11.6,122.8,9.4,124.3z"/>
<path class="st0" d="M37.8,124.3c-0.3,1-1.1,1.8-2.2,2.1c-1.7,0.5-3.5,0.8-5.2,1c-1.1,0.2-2.2,0.7-3.2,1.4c-0.2,0.1-0.3,0.3-0.5,0.2
	c0.3-1.4,1.5-2.5,3-2.7c1.9-0.1,3.7-0.5,5.5-0.9C36,125,36.8,124.7,37.8,124.3z"/>
<path class="st0" d="M48,130.2c-2.2-1.1-4.5-0.9-6.8-0.9c-0.8,0-1.6-0.1-2.3-0.3c-0.6-0.2-1-0.6-1.2-1.1c1.7,0.3,3.5,0.5,5.3,0.4
	c1-0.2,2-0.2,3,0C46.9,128.7,47.6,129.3,48,130.2z"/>
<path class="st0" d="M18.1,125.4c0.9-1.4,2.6-2.1,4.2-1.7c1.1,0.2,2.2,0.6,3.4,0.7c0.5,0,0.7,0.3,0.7,0.8s-0.5,0.4-0.8,0.4
	c-0.8,0-1.6-0.2-2.4-0.4c-1.6-0.4-3.4-0.4-5,0.2C18.3,125.5,18.2,125.4,18.1,125.4z"/>
<path class="st0" d="M24.7,119.7c1.9-1,3.5-0.5,5,0.8c0.7,0.5,1.4,1,2.1,1.4c-0.4,0.4-0.9,0.7-1.5,0.3
	C28.6,121.2,26.9,119.9,24.7,119.7z"/>
<path class="st0" d="M44,125c-1.6-0.7-3.3-1-5-0.8c-0.7,0-1.1-0.2-1.2-1c1.7,0,3.3-0.7,4.9,0.2C43.3,123.8,43.8,124.4,44,125z"/>
<path class="st0" d="M25.4,115.5c0.1,1-0.4,2-1.2,2.5c-0.8,0.6-1.6,1.1-2.4,1.5c-0.4,0.2-0.8,0.3-1.1-0.2s0.2-0.5,0.5-0.7
	c1.1-0.6,2.2-1.4,3.2-2.2L25.4,115.5z"/>
<path class="st0" d="M17.1,112.8c1.8-1.1,4.2-0.5,5.3,1.2c-0.3,0.4-0.8,0.5-1.3,0.3c-0.7-0.3-1.3-0.7-1.9-1
	C18.5,113.1,17.8,112.9,17.1,112.8z"/>
<path class="st0" d="M17.7,117c-0.3,0.5-0.9,0.7-1.3,0.4c0,0,0,0,0,0c-1-0.5-2.1-0.8-3.3-1C14.4,115.3,16.1,115.5,17.7,117z"/>
<path class="st0" d="M48.4,130.4h0.1l0,0H48.4C48.4,130.4,48.4,130.4,48.4,130.4z"/>
<path class="st0" d="M19.3,134c-0.7,1.2-1.9,1.4-3.1,1.6c-1.6,0.1-3.1,0.3-4.7,0.6c-0.8,0.2-1.5,0.6-2.3,0.9c0.4-1.4,1.6-2.3,3-2.3
	c1.7,0,3.3-0.1,5-0.5c0.4-0.1,0.8-0.3,1.2-0.4S19,133.8,19.3,134z"/>
<path class="st0" d="M8.6,116.4c-0.4,0.7-1.2,1.2-2,1.1c-1.5,0-2.9,0-4.3,0c-0.6,0-1.1,0.3-1.7,0.3c0.6-1.4,1.8-1.4,3-1.2
	C5.2,116.8,6.9,116.7,8.6,116.4z"/>
<path class="st0" d="M110.4,93.3c0,0.4-0.3,0.7-0.7,0.6c-0.3,0-0.5-0.2-0.6-0.5c0,0,0-0.1,0-0.1c0-0.4,0.2-0.7,0.6-0.7
	c0,0,0.1,0,0.1,0C110.2,92.6,110.3,93,110.4,93.3z"/>
<path class="st0" d="M113.8,90.3c0,0.4-0.1,0.7-0.5,0.7c-0.3,0-0.6-0.3-0.6-0.6c0,0,0,0,0,0c0-0.4,0.2-0.6,0.6-0.6
	S113.9,89.9,113.8,90.3z"/>
<path class="st0" d="M112.4,91.2c0.3,0,0.3,0.1,0.4,0.3C112.5,91.5,112.4,91.4,112.4,91.2z"/>
<path class="st0" d="M45,62c1.8,0,2.4,0.8,2.1,2.5c-0.2,0.9-1.1,1.4-1.9,1.2c-0.1,0-0.2,0-0.3-0.1c-0.2-0.1-0.3-0.3-0.3-0.5
	C44.8,64.1,44.9,63,45,62z"/>
<path class="st0" d="M45.2,60.1l0.2-3.1c0.8,0.1,1.6-0.1,1.9,0.8c0.3,0.7,0.2,1.4-0.2,2C46.6,60.4,45.9,60.1,45.2,60.1z"/>
<path class="st0" d="M48.3,49.4c0.2-2.3,0.4-4.5,0.6-6.7c0-0.6,0.4-1,1-1c0.1,0,0.1,0,0.2,0c0.5-0.1,1,0.3,1.1,0.9
	c0,0.1,0,0.1,0,0.2c-0.2,2.3-0.4,4.7-0.6,7c-0.1,0.6-0.7,0.9-1.2,0.8C48.7,50.5,48.3,50,48.3,49.4z"/>
<path class="st0" d="M63,64.7l-1.4-0.2c0.3-1.5,0.7-3,1-4.4h0.1L63,64.7z"/>
<path class="st0" d="M99.8,102.6c-0.6,0-0.8-0.3-0.8-0.7c0-0.4,0.3-0.7,0.6-0.7c0,0,0,0,0.1,0c0.4,0,0.6,0.3,0.6,0.7
	C100.4,102.2,100.1,102.5,99.8,102.6z"/>
<path class="st0" d="M103.8,98.9c0,0.5-0.2,0.6-0.6,0.7s-0.6-0.2-0.6-0.6c0-0.3,0.2-0.6,0.5-0.6c0,0,0.1,0,0.1,0
	C103.6,98.4,103.8,98.5,103.8,98.9z"/>
<path class="st0" d="M105.5,97.5c0,0.3-0.2,0.6-0.5,0.6c0,0-0.1,0-0.1,0c-0.3,0-0.6-0.2-0.6-0.5c0,0,0,0,0-0.1
	c0-0.3,0.2-0.7,0.6-0.7C105.2,96.8,105.5,97.1,105.5,97.5C105.5,97.4,105.5,97.4,105.5,97.5z"/>
<path class="st0" d="M101.4,99.8c0.2,0.4,0.1,0.8-0.2,1.1C100.8,100.4,100.8,100.1,101.4,99.8z"/>
<path class="st0" d="M103,32.3c-0.4,0-0.6-0.2-0.5-0.6c0-0.4,0.4-0.6,0.8-0.6c0.3,0,0.6,0.2,0.6,0.5c0,0,0,0.1,0,0.1
	C103.8,32.2,103.5,32.3,103,32.3z"/>
<path class="st0" d="M105.5,30.2c-0.1,0.3-0.2,0.7-0.7,0.7c-0.3,0-0.6-0.2-0.6-0.5c0,0,0,0,0-0.1c-0.1-0.3,0.2-0.6,0.5-0.7
	c0,0,0.1,0,0.1,0C105.2,29.5,105.5,29.8,105.5,30.2C105.5,30.1,105.5,30.1,105.5,30.2z"/>
<path class="st0" d="M101.2,32.6c0.1,0.4,0.2,0.7-0.2,1C100.8,33.2,100.8,33,101.2,32.6z"/>
<path class="st0" d="M106.5,95.2c0.4,0.1,0.4,0.4,0.6,0.7c-0.3-0.2-0.6,0.2-1,0C106.1,95.6,106.5,95.5,106.5,95.2L106.5,95.2z"/>
<rect x="34.6" y="37.8" transform="matrix(0.9848 0.1739 -0.1739 0.9848 10.3175 -9.6574)" class="st0" width="51.3" height="32.5"/>
<rect x="95.8" y="86" class="st0" width="18" height="19.9"/>
<rect x="98.4" y="25" class="st0" width="8.8" height="12.9"/>
</svg>
