<svg id="Capa_1" data-name="Capa 1" xmlns="http://www.w3.org/2000/svg" viewBox="0 0 139.06 133.69"><defs><style>.cls-1{fill:#ae8654;}</style></defs><title>icon-cafe</title><path class="cls-1" d="M5.7,54.59c.72-1.87,1-3.88,1.72-5.74A38.29,38.29,0,0,1,20,33,52.79,52.79,0,0,1,44.33,22.63c7.85-1.22,15.59-.72,23,2.62A22.3,22.3,0,0,1,79,36.55a1.18,1.18,0,0,1-.3,1.61,41,41,0,0,1-21,10.72,65.59,65.59,0,0,1-17.42.64c-8.79-.59-17.42.2-25.53,4a31.8,31.8,0,0,0-7.5,4.8c-.48.41-1,.76-1.51,1.14Z" transform="translate(-5.7 -8.4)"/><path class="cls-1" d="M104.51,82.92A23.73,23.73,0,0,1,95,74c-4.59-7.38-6.14-15.53-5.82-24.08a51.92,51.92,0,0,1,7.4-25.28c3.93-6.47,9-11.75,16.17-14.65a20.11,20.11,0,0,1,11-1.29.89.89,0,0,1,.86.81,39.83,39.83,0,0,1,.68,13.33c-1.12,9.66-5.5,17.88-11.15,25.59A52.17,52.17,0,0,0,105,67.51a34.43,34.43,0,0,0-.51,14.64A4.87,4.87,0,0,1,104.51,82.92Z" transform="translate(-5.7 -8.4)"/><path class="cls-1" d="M31.3,131.69A21.2,21.2,0,0,1,28.53,123c-.89-8.47,1.56-16.17,5.86-23.3a51.17,51.17,0,0,1,26-22.13c7-2.65,14-3.51,21.28-1a20.62,20.62,0,0,1,7,4.21c.55.49.38.88.17,1.42a39,39,0,0,1-9.71,14.33c-6.06,5.79-13.43,9.27-21.19,12.12-8,2.93-15.14,7.18-20.8,13.69A35.48,35.48,0,0,0,32.09,130Z" transform="translate(-5.7 -8.4)"/><path class="cls-1" d="M80.43,42.11A21.93,21.93,0,0,1,79.1,52.47c-2.79,7.63-8,13.31-14.54,17.91A52.39,52.39,0,0,1,41.68,79.5c-7.75,1.14-15.41.68-22.67-2.64-5.26-2.41-9.39-6-11.76-11.43a1.41,1.41,0,0,1,.32-1.85c4.53-4.78,10.18-7.48,16.5-9a54.28,54.28,0,0,1,16.72-1c10.29.8,20.27-.17,29.67-4.79A43.56,43.56,0,0,0,80.43,42.11Z" transform="translate(-5.7 -8.4)"/><path class="cls-1" d="M129,10.3a23.7,23.7,0,0,1,9.8,8.94,38.63,38.63,0,0,1,5.71,17.55,52,52,0,0,1-7.17,32.05c-3.86,6.51-9,11.76-16.17,14.66a21.16,21.16,0,0,1-11.3,1.26c-.72-.11-.74-.59-.86-1a29.65,29.65,0,0,1-.49-13.15,46.51,46.51,0,0,1,8.25-18.78c3.74-5.27,7.31-10.61,9.65-16.69a48.3,48.3,0,0,0,3.1-21C129.44,12.91,129.19,11.68,129,10.3Z" transform="translate(-5.7 -8.4)"/><path class="cls-1" d="M92.14,85.09a25.14,25.14,0,0,1,2.78,17c-2,12.21-8.56,21.76-17.91,29.53a44.22,44.22,0,0,1-21.12,10c-6.61,1.1-13,.42-18.7-3.41-3.2-2.13-3.27-2.36-1.67-5.87C39,124.71,45,119.67,52.18,115.72c4.71-2.61,9.9-4.06,14.77-6.27A50.29,50.29,0,0,0,88.37,91.91,46,46,0,0,0,92.14,85.09Z" transform="translate(-5.7 -8.4)"/></svg>