<svg id="Capa_1" data-name="Capa 1" xmlns="http://www.w3.org/2000/svg" viewBox="0 0 141.32 99.23"><defs><style>.cls-1{fill:#ae8654;}</style></defs><title>icon-camion</title><path class="cls-1" d="M13.89,25.53a6.29,6.29,0,0,0-3.87,3c-.78,1.49-.73-1.12-.73,32.79,0,30.36,0,30.62.22,31.05a2.61,2.61,0,0,0,.63.74l.4.31,34.72,0c34.67,0,34.72,0,35.15-.2a2.2,2.2,0,0,0,.74-.69l.31-.46,0-30.57c0-26.82,0-30.66-.14-31.37a6.1,6.1,0,0,0-3.9-4.49l-.74-.28-31.08,0C19.08,25.37,14.44,25.4,13.89,25.53Z" transform="translate(-4.34 -25.38)"/><path class="cls-1" d="M90.35,38a3.91,3.91,0,0,0-2.89,2.73c-.19.64-.2,1.77-.2,29.75V99.56H56.13l.56.52a17.15,17.15,0,0,1,4.8,8.67l.2,1H94.54l.06-.42a16.77,16.77,0,0,1,8.75-11.92,16.51,16.51,0,0,1,21.06,5.1,16.89,16.89,0,0,1,2.89,7l0,.24H144l.55-.27a2.32,2.32,0,0,0,.81-.69l.28-.4,0-3.49a34,34,0,0,0-.07-3.88,2,2,0,0,0-1-1.21c-.39-.2-.65-.22-3.12-.22h-2.71l0-14.88c0-16.55,0-15.18-.8-17.66a17.42,17.42,0,0,0-2.52-4.78c-6.31-9.42-12.17-18-12.8-18.75a16.25,16.25,0,0,0-9.22-5.35c-1.18-.24-1.24-.25-11.85-.28C93,37.84,90.75,37.88,90.35,38Zm24.37,11.09c.4.22,1.19,1.32,5.41,7.29,2.72,3.87,5.06,7.25,5.19,7.51a1.8,1.8,0,0,1,.09,1.64,1.66,1.66,0,0,1-1,1c-.42.2-1.06.21-13.4.21-11.4,0-13,0-13.35-.16a1.72,1.72,0,0,1-1-1c-.18-.42-.21-.89-.21-7.81,0-8,0-7.78.64-8.4s.48-.63,9.19-.59l8,0Z" transform="translate(-4.34 -25.38)"/><path class="cls-1" d="M5.48,99.75a1.88,1.88,0,0,0-1,1.07c-.14.39-.17,1-.14,4l0,3.54.28.41a2.25,2.25,0,0,0,.82.68l.56.27,11.41,0,11.42,0,.2-1a16.42,16.42,0,0,1,4.28-8l1-1.1H20.11C7.3,99.57,5.78,99.58,5.48,99.75Z" transform="translate(-4.34 -25.38)"/><path class="cls-1" d="M43.2,99.73a12.79,12.79,0,0,0-7.08,3.79,12.52,12.52,0,1,0,21.3,11.75,9.46,9.46,0,0,0,.29-3.17,8.59,8.59,0,0,0-.3-3.2,12.62,12.62,0,0,0-10.06-9.17A14.43,14.43,0,0,0,43.2,99.73ZM46.83,106a6.42,6.42,0,0,1,4.44,4.25,7,7,0,0,1,0,3.48,6.46,6.46,0,0,1-4.53,4.42,7.13,7.13,0,0,1-2.84,0,6.58,6.58,0,0,1-4.64-4.16,7.69,7.69,0,0,1-.05-3.78A6.53,6.53,0,0,1,43.65,106,8.29,8.29,0,0,1,46.83,106Z" transform="translate(-4.34 -25.38)"/><path class="cls-1" d="M108.81,99.73a12.63,12.63,0,0,0-6.52,3.3,12.23,12.23,0,0,0-3.85,9.61,12.53,12.53,0,0,0,10.19,11.79,18.4,18.4,0,0,0,4.63,0,12.6,12.6,0,0,0,10-14.36,12.66,12.66,0,0,0-10.26-10.33A15.06,15.06,0,0,0,108.81,99.73Zm4.33,6.5a6.22,6.22,0,0,1,4,5.87,6.12,6.12,0,0,1-1.83,4.4,6.25,6.25,0,0,1-10.27-2.21,7.62,7.62,0,0,1-.27-3.55,6.48,6.48,0,0,1,4.53-4.72A7.78,7.78,0,0,1,113.14,106.23Z" transform="translate(-4.34 -25.38)"/></svg>