<?xml version="1.0" encoding="utf-8"?>
<!-- Generator: Adobe Illustrator 23.0.2, SVG Export Plug-In . SVG Version: 6.00 Build 0)  -->
<svg version="1.1" id="Ebene_1" xmlns="http://www.w3.org/2000/svg" xmlns:xlink="http://www.w3.org/1999/xlink" x="0px" y="0px"
	 viewBox="0 0 291.2 291.2" style="enable-background:new 0 0 291.2 291.2;" xml:space="preserve">
<style type="text/css">
	.st0{fill:#754C24;}
	.st1{fill:#FFFFFF;}
	.st2{fill:#FCFCFC;}
	.st3{fill:#884D13;}
</style>
<title>logo_footer</title>
<circle class="st0" cx="145.6" cy="145.6" r="140.6"/>
<path class="st1" d="M198.6,130.6c-1.2-2-0.5-4.1-0.4-6.2s-0.6-2.5-2.5-2.4c-33.1,0-66.1,0-99.2,0c-1.8,0-2.5,0.4-2.5,2.4
	c0.2,8.3,0.7,16.6,2.8,24.8c3.2,12.7,10.9,21.4,23.2,26l1.3,0.5c1,0.4,1.8,0.9,1.5,2.1s-1.2,1.2-2.1,1.2c-1.5,0-3,0-4.5,0H18.9v-3.3
	h93.8c0-0.9-0.5-1-0.9-1.2c-9.4-5.5-15-13.9-17.8-24.3c-2.6-9.5-3-19.2-3-29c0-2,1.3-2,2.8-2h103.6c3.5,0,3.5,0,3.5,3.5
	c0,1.5-0.4,3.4,0.3,4.6c0.7,1.2,2.8,0.4,4.2,0.5c6.4,0.8,11.6,3.3,13.7,9.8c2.2,7,0.8,14.5-5.5,19.7c-5.6,4.6-12.3,6.4-19.4,7
	c-1.8,0-3.6,0.9-4.7,2.4c-2.4,3-5.4,5.6-8.7,7.5c-0.8,0.3-1.5,0.9-2,1.6h94.3v3.2h-85.1c-5.6,0-11.1,0-16.6,0c-1.1,0-2.3,0-2.6-1.4
	s0.9-1.6,1.9-2c7.3-2.6,13.6-6.6,18.2-13c0.8-1,1.8-1,2.9-1.1c5.4-0.2,10.8-1.5,15.7-3.8c5.9-3,9.4-7.5,9.5-14.4
	c0.2-6.4-4.6-11.8-11-12.4c-2.2-0.5-4.5-0.6-6.6-0.1H199L198.6,130.6z"/>
<path class="st2" d="M137.1,117.5c-0.9,0.1-1.5,0.1-1.8-0.6s0.2-1,0.6-1.4c4.4-4.4,4.6-8,1.1-13.5c-1.5-2.1-2.8-4.3-3.9-6.6
	c-3.9-8.9-1.7-16.9,6.3-22.4c3.1-2.1,6.4-3.8,10-4.9c0.8-0.2,1.8-0.9,2.4,0.1s-0.5,1.5-1.1,2c-2.8,2.1-4.9,4.9-6.2,8.1
	c-1.9,5-0.5,9.7,1.3,14.3c1.4,3.6,3.6,6.7,4.5,10.6c1.1,4-0.3,8.2-3.6,10.7C143.8,115.9,140.5,117.2,137.1,117.5z M145.1,72.2
	c-3,1.3-5.7,3.2-7.9,5.5c-3,3-4.5,7.3-3.8,11.5c0.6,4.2,2.6,7.7,5,11.2c2.9,4.3,4.4,8.8,1.9,13.9l-0.1,0.3h0.5c7-1.8,9.6-6.7,7-13.3
	c-0.4-0.9-0.9-1.8-1.3-2.8c-0.8-1.7-1.7-3.4-2.5-5.1c-3-7.2-3.7-14.2,1.5-20.8l0.2-0.3L145.1,72.2z"/>
<path class="st1" d="M157.9,90c0.5,0,1.1-0.1,1.4,0.5s-0.2,1.1-0.6,1.5c-2,2-2.1,2.8-0.9,5.4c1.1,2.3,2.5,4.4,3,7
	c0.5,2.6-0.2,5.2-2,7.1c-2.1,2.5-5.1,3.7-8.2,4.7c-0.6,0.2-1.3,0.2-1.6-0.5s0.2-1.1,0.6-1.5c4.4-4.1,4.9-8,2.1-13
	c-1.3-2.3-2-4.9-0.7-7.5C152,91.6,155.2,90,157.9,90z M154.6,111.8c0.4,0.1,0.8,0,1.1-0.2c3.4-2.4,4.1-6,1.9-10.2
	c-1.4-2.6-3-5.1-2.3-8.3c-3,1-3.7,3.1-2.1,6.5C155,103.4,156.5,107.4,154.6,111.8z"/>
<path class="st1" d="M202.7,135.6c0.5,0,1,0,1.6,0.1c3.1,0.3,6.2,0.9,7.4,4.3c1.4,3.6,0.5,7.8-2.3,10.5c-2.9,3-6.7,4.3-10.6,5.1
	c-1.5,0.3-3.3,1.4-4.6,0.1s0.2-3,0.6-4.5c1.1-4,2-8,2.5-12.1c0.4-3,0.4-3,3.4-3.3L202.7,135.6z M197.4,152.6
	c4.4-0.1,8.4-2.3,10.9-5.9c2.5-3.8,0.8-7.6-3.7-8c-1.5-0.3-3-0.2-4.5,0.3C199.6,143.6,198.7,148.2,197.4,152.6z"/>
<path class="st3" d="M198.6,130.6l0.5,0.2L198.6,130.6z"/>
</svg>
