<svg id="Ebene_1" data-name="Ebene 1" xmlns="http://www.w3.org/2000/svg" viewBox="0 0 291.25 291.25"><defs><style>.cls-1{fill:#fff;stroke:#fff;stroke-miterlimit:10;stroke-width:10px;}.cls-2{fill:#754c24;}.cls-3{fill:#884d13;}</style></defs><title>kaffe-logo-02</title><circle class="cls-1" cx="145.63" cy="145.63" r="140.63"/><path class="cls-2" d="M203,135c-1.22-2-.5-4.12-.44-6.15s-.62-2.46-2.52-2.45q-49.59.07-99.18,0c-1.79,0-2.52.4-2.47,2.36.22,8.34.74,16.63,2.83,24.76,3.25,12.69,10.87,21.41,23.16,26l1.33.49c1,.36,1.76.89,1.49,2.07s-1.17,1.2-2.09,1.2c-1.49,0-3,0-4.47,0l-97.35,0v-3.26h93.82c0-.86-.52-1-.89-1.19-9.42-5.52-15-13.89-17.76-24.26-2.55-9.51-3-19.24-3-29,0-2,1.32-2,2.76-2H201.86c3.54,0,3.51,0,3.48,3.48,0,1.55-.45,3.42.26,4.57s2.76.36,4.21.54c6.36.79,11.62,3.3,13.69,9.78,2.24,7,.81,14.51-5.48,19.68-5.61,4.62-12.32,6.39-19.37,7A5.79,5.79,0,0,0,194,171a31.87,31.87,0,0,1-8.74,7.51,4.66,4.66,0,0,0-2,1.61h94.35v3.25l-85.08,0c-5.55,0-11.1,0-16.65,0-1.14,0-2.32,0-2.57-1.36s.93-1.65,1.88-2c7.32-2.59,13.59-6.64,18.23-13,.75-1,1.82-1,2.91-1.07A39.47,39.47,0,0,0,212,162.09c5.9-3,9.37-7.5,9.54-14.38a12.15,12.15,0,0,0-11-12.4,14.6,14.6,0,0,0-6.64-.06h-.56Z" transform="translate(-4.37 -4.37)"/><path class="cls-2" d="M141.44,121.91c-.87.07-1.51.07-1.78-.64s.23-1,.62-1.37c4.35-4.44,4.65-8,1.05-13.47a45.18,45.18,0,0,1-3.93-6.63c-3.93-8.87-1.67-16.88,6.32-22.4a36.66,36.66,0,0,1,10-4.87c.79-.25,1.77-.91,2.39.11s-.5,1.51-1.12,2a19.86,19.86,0,0,0-6.23,8.12c-1.87,5-.54,9.69,1.34,14.33,1.44,3.55,3.65,6.74,4.54,10.55A9.88,9.88,0,0,1,151,118.3,20.25,20.25,0,0,1,141.44,121.91Zm8-45.35a24.11,24.11,0,0,0-7.91,5.53,13.32,13.32,0,0,0-3.81,11.48c.58,4.2,2.63,7.73,5,11.15,2.93,4.29,4.42,8.81,1.92,13.87l-.14.31.46,0c7-1.79,9.59-6.67,7-13.34-.36-.94-.85-1.84-1.29-2.75-.82-1.7-1.74-3.37-2.46-5.11-3-7.18-3.73-14.22,1.51-20.81l.18-.28Z" transform="translate(-4.37 -4.37)"/><path class="cls-2" d="M162.25,94.35c.54,0,1.12-.06,1.43.52s-.19,1.08-.62,1.51c-2,2-2.1,2.84-.88,5.37,1.09,2.28,2.54,4.37,3,7a8.16,8.16,0,0,1-2,7.11c-2.15,2.5-5.08,3.74-8.16,4.65-.6.17-1.28.21-1.59-.49s.19-1.1.65-1.54c4.39-4.14,4.93-8,2.06-13-1.34-2.33-2-4.87-.7-7.48C156.38,96,159.59,94.37,162.25,94.35ZM159,116.12a1,1,0,0,0,1.06-.24c3.38-2.43,4.14-6,1.89-10.23-1.41-2.61-3-5.09-2.28-8.34-3,1-3.68,3.08-2.13,6.47C159.4,107.77,160.86,111.76,159,116.12Z" transform="translate(-4.37 -4.37)"/><path class="cls-2" d="M207.08,140c.47,0,1,0,1.55.1,3.12.32,6.21.86,7.41,4.3a9.62,9.62,0,0,1-2.3,10.5c-2.9,3-6.67,4.3-10.63,5.11-1.52.31-3.32,1.44-4.62.12s.2-3,.62-4.5a76.94,76.94,0,0,0,2.47-12.11c.39-3,.36-3,3.41-3.33Zm-5.28,17a13.87,13.87,0,0,0,10.91-5.88c2.51-3.77.75-7.62-3.68-8a9.48,9.48,0,0,0-4.47.29A87.37,87.37,0,0,1,201.8,157Z" transform="translate(-4.37 -4.37)"/><path class="cls-3" d="M203,135l.47.23Z" transform="translate(-4.37 -4.37)"/></svg>